<?xml version="1.0" encoding="UTF-8" standalone="no"?>
<!-- Created with Inkscape (http://www.inkscape.org/) -->

<svg
   xmlns:dc="http://purl.org/dc/elements/1.1/"
   xmlns:cc="http://creativecommons.org/ns#"
   xmlns:rdf="http://www.w3.org/1999/02/22-rdf-syntax-ns#"
   xmlns:svg="http://www.w3.org/2000/svg"
   xmlns="http://www.w3.org/2000/svg"
   xmlns:sodipodi="http://sodipodi.sourceforge.net/DTD/sodipodi-0.dtd"
   xmlns:inkscape="http://www.inkscape.org/namespaces/inkscape"
   width="530"
   height="530"
   version="1.1"
   viewBox="0 0 140.23 140.23"
   id="svg41"
   sodipodi:docname="logo.svg"
   inkscape:version="0.92.4 5da689c313, 2019-01-14">
  <sodipodi:namedview
     pagecolor="#ffffff"
     bordercolor="#666666"
     borderopacity="1"
     objecttolerance="10"
     gridtolerance="10"
     guidetolerance="10"
     inkscape:pageopacity="0"
     inkscape:pageshadow="2"
     inkscape:window-width="1854"
     inkscape:window-height="1016"
     id="namedview43"
     showgrid="false"
     inkscape:zoom="0.62972528"
     inkscape:cx="96.648334"
     inkscape:cy="201.30654"
     inkscape:window-x="66"
     inkscape:window-y="27"
     inkscape:window-maximized="1"
     inkscape:current-layer="svg41"
     inkscape:snap-bbox="true"
     inkscape:bbox-paths="true"
     inkscape:bbox-nodes="true"
     inkscape:snap-bbox-edge-midpoints="true"
     inkscape:snap-bbox-midpoints="true"
     inkscape:snap-page="true" />
  <defs
     id="defs11">
    <filter
       id="filter875"
       x="-.055116"
       y="-.27206"
       width="1.1102"
       height="1.5441"
       color-interpolation-filters="sRGB">
      <feGaussianBlur
         stdDeviation="2.5951078"
         id="feGaussianBlur2" />
    </filter>
    <filter
       id="filter879"
       x="-.053997"
       y="-.38808"
       width="1.108"
       height="1.7762"
       color-interpolation-filters="sRGB">
      <feGaussianBlur
         stdDeviation="2.5951078"
         id="feGaussianBlur5" />
    </filter>
    <filter
       id="filter883"
       x="-.074844"
       y="-.3927"
       width="1.1497"
       height="1.7854"
       color-interpolation-filters="sRGB">
      <feGaussianBlur
         stdDeviation="2.5951078"
         id="feGaussianBlur8" />
    </filter>
  </defs>
  <metadata
     id="metadata13">
    <rdf:RDF>
      <cc:Work
         rdf:about="">
        <dc:format>image/svg+xml</dc:format>
        <dc:type
           rdf:resource="http://purl.org/dc/dcmitype/StillImage" />
        <dc:title></dc:title>
      </cc:Work>
    </rdf:RDF>
  </metadata>
  <g
     transform="translate(0 -156.77)"
     id="g39">
    <g
       id="g25">
      <path
         d="m88.5 187.24c5.3e-4 -0.0229 0.30053-0.63187 0.66649-1.3532 1.1539-2.2744 0.83224-4.6338-0.90085-6.6076-0.45823-0.52189-0.83314-1.0158-0.83314-1.0975 0-0.40865 2.4733 0.7701 3.2995 1.5725 1.2652 1.2287 1.6952 2.6713 1.2455 4.1783-0.35921 1.2038-1.9485 2.949-2.9158 3.202-0.30953 0.0809-0.56229 0.12841-0.56167 0.10548zm21.309 4.0195c-1.9647-3.1134-4.679-7.3899-6.0319-9.5032s-2.4112-3.9211-2.3517-4.0172c0.0594-0.0961 1.3441-0.20347 2.8548-0.23854l2.7468-0.0638-0.92053 0.77546c-0.90371 0.7613-0.91465 0.79507-0.59898 1.8487 0.34102 1.1382 2.3272 4.5099 5.8125 9.8673l2.1229 3.2632 3.2503-5.6625c1.7876-3.1144 3.3857-6.0546 3.5513-6.5337 0.41023-1.187 0.11474-2.1424-0.82865-2.6791-0.43369-0.24676-0.78929-0.53079-0.79022-0.63119-8e-4 -0.10039 1.7978-0.17643 3.9972-0.16896 3.7454 0.0127 4.7759 0.20226 3.4269 0.63041-0.98496 0.31262-2.8156 2.2162-4.0454 4.2066-0.65002 1.052-2.7154 4.5521-4.5896 7.7779-1.8743 3.2258-3.5486 6.0731-3.7207 6.3273-0.2696 0.39822-0.8073-0.32129-3.885-5.1986zm-63.719 5.7143c-5.3875-3.4166-5.6939-12.056-0.55381-15.614 0.61399-0.425 1.1658-0.72331 1.2262-0.66289 0.06042 0.0604-0.29531 0.75242-0.79051 1.5378-1.5999 2.5374-2.1256 6.4438-1.3245 9.8417 0.47342 2.0081 0.95532 3.0071 2.1799 4.5189 1.0743 1.3264 0.89947 1.416-0.73723 0.37806zm-27.991 0.21524c-1.3613-0.70086-2.8222-2.2952-3.6582-3.9924-0.57932-1.1761-0.7406-1.9252-0.81492-3.7852-0.14404-3.6047 0.95592-6.1257 3.4661-7.944 1.399-1.0134 1.7498-1.0183 1.0349-0.0144-1.3495 1.8951-1.9576 3.7616-2.0845 6.3975-0.18847 3.9139 0.66466 6.8898 2.5444 8.8757 0.88033 0.92998 0.71827 1.0837-0.48782 0.46278zm71.733 1.7371c0-0.0746 0.35322-0.62321 0.78493-1.2192 1.6489-2.2762 1.5999-5.4226-0.12441-7.9849-0.97946-1.4555-0.87696-1.5814 0.65227-0.80122 3.4815 1.7761 4.2548 5.6448 1.6723 8.3658-0.88313 0.93048-2.9851 2.0849-2.9851 1.6395zm-6.1893-12.125c0.87184-0.39571 1.2647-0.78853 1.6604-1.6604 0.64943-1.4309 0.65193-2.1808 0.01194-3.5904-0.76422-1.6832-3.251-2.725-5.2123-2.1835-1.0803 0.29829-1.2011 0.79432-1.2011 4.9317v3.0325l1.7995-6e-3c1.2024-4e-3 2.1785-0.17785 2.9416-0.52419zm2.3713 10.51c1.6968-1.2415 2.3185-4.1576 1.2671-5.9432-0.94409-1.6035-2.0012-2.0223-5.3803-2.1314l-2.9992-0.0969v2.8433c0 3.2905 0.36635 5.0604 1.1668 5.637 0.88126 0.63486 4.9442 0.42384 5.9455-0.3088zm-8.3816 2.3422-0.86938-0.0931 0.13918-21.96 2.9325-0.0794c3.3995-0.092 4.7437 0.20443 6.1378 1.3536 2.6412 2.1771 2.6758 6.5353 0.06649 8.3786l-0.83312 0.58856 0.78016 0.28337c2.7383 0.99462 4.1096 2.8647 4.1096 5.6043 0 2.6495-1.7226 4.9582-4.2626 5.7131-1.3721 0.40776-5.397 0.51129-8.2008 0.21093zm-8.0616-0.0135c0-0.13603 0.37083-0.40093 0.82406-0.58867 0.45323-0.18773 1.143-0.82304 1.5329-1.4118l0.70886-1.0705 0.07698-7.6181c0.07565-7.4868 0.06646-7.6388-0.53319-8.8178-0.39848-0.78347-0.95676-1.3847-1.6092-1.7329-0.54946-0.29326-0.99934-0.62317-0.99973-0.73314-3.95e-4 -0.10997 1.199-0.19994 2.6652-0.19994h2.666v22.328l-2.666 0.0459c-1.4941 0.0258-2.666-0.0628-2.666-0.20139zm38.098-5.0441c-1.944-3.0425-4.6507-7.2818-6.0148-9.4205-2.6622-4.174-4.6638-6.4376-6.1163-6.917-1.585-0.52309-1.0225-0.8158 1.4122-0.73494l2.3193 0.077 2.8834 4.5321c1.5859 2.4927 3.9455 6.2117 5.2437 8.2645s2.985 4.7105 3.7484 5.906c1.3797 2.1605 1.3855 2.1787 0.96126 2.9992-0.23479 0.45402-0.53389 0.82549-0.66467 0.82549-0.13079 0-1.8284-2.4893-3.7724-5.5318zm-52.705 5.1425c-5.2628-1.1969-8.2124-4.2868-8.8435-9.2642-0.41748-3.2928 0.23477-6.3738 1.7771-8.3943 1.6238-2.1273 3.3018-3.2744 6.0079-4.107 3.192-0.98218 8.7394-0.92954 12.868 0.12211l1.3309 0.33898 0.07773 2.7824c0.11529 4.1264-0.2429 5.0338-1.072 2.7157-0.64036-1.7905-1.8385-3.1121-3.61-3.982-1.4273-0.7009-1.7459-0.75007-4.8599-0.75007-3.0922 0-3.4478 0.0539-4.932 0.74707-3.0226 1.4117-4.6878 3.6777-5.1448 7.001-0.61851 4.4977 1.0491 8.3646 4.3309 10.043 4.2182 2.1568 10.662 1.5236 14.328-1.4078 1.1276-0.90162 1.4146-0.70019 1.0541 0.73981-0.13848 0.55323-0.32357 1.3257-0.4113 1.7167-0.14562 0.64895-0.37416 0.76197-2.626 1.2988-3.1445 0.74957-7.9215 0.93568-10.275 0.40032zm-28.655-0.0132c-4.8254-1.2156-7.7096-4.1194-8.4788-8.5368-0.72026-4.1361 0.51276-8.4831 3.0277-10.674 3.2967-2.8721 8.5247-3.899 14.855-2.9182 4.385 0.67944 4.1276 0.49637 4.1603 2.9582 0.01544 1.1613-0.03001 2.6813-0.10099 3.3778-0.13046 1.2801-0.48697 1.6563-0.75783 0.79979-0.7523-2.379-2.5928-4.4823-4.516-5.1608-0.67568-0.2384-2.195-0.37041-4.2507-0.36933-2.9645 2e-3 -3.3222 0.0584-4.8764 0.7745-2.1256 0.97938-4.0838 3.0482-4.7511 5.0192-0.67601 1.9969-0.63515 5.7496 0.08242 7.5702 1.2299 3.1205 3.7188 4.9359 7.5281 5.4911 3.8384 0.55945 7.617-0.30285 10.494-2.3948 0.70337-0.51145 1.3342-0.87459 1.4018-0.80698 0.06761 0.0676-0.06827 0.96957-0.30195 2.0044l-0.42488 1.8814-2.3099 0.60087c-2.956 0.76896-8.4718 0.96517-10.781 0.38351z"
         filter="url(#filter875)"
         id="path15" />
      <g
         filter="url(#filter879)"
         aria-label="Centro Cultural"
         id="g19">
        <path
           d="m127.79 234.72v-1.4891h-3.1436v-11.109h-1.5836v12.598zm-7.0244 0v-3.1436h0.77999v-1.4891h-0.77999v-4.3018c0-1.3945-0.14182-1.9618-0.59091-2.6236-0.59091-0.80363-1.4891-1.2527-2.5764-1.2527-1.2291 0-2.2927 0.63818-2.7891 1.6545-0.28363 0.54363-0.35454 1.0636-0.35454 2.34v4.1836h-0.78v1.4891h0.78v3.1436h1.5836v-3.1436h3.1436v3.1436zm-1.5836-4.6327h-3.1436v-4.94c0-1.0636 0.66181-1.7727 1.6309-1.7727 0.92181 0 1.5127 0.68545 1.5127 1.7491zm-11.201 1.3945 2.7418 3.2382h2.08l-3.0727-3.4982c1.7491-0.70909 2.9545-2.4109 2.9545-4.3727 0-2.0091-1.2291-4.7272-5.4127-4.7272h-0.87454v12.598h1.5836zm0-7.8945c1.7491 0.0709 3.12 1.5127 3.12 3.2618 0 1.7491-1.3945 3.1909-3.12 3.2382zm-10.034 7.3509c0 1.2764 0.09454 1.7964 0.35454 2.34 0.52 1.0164 1.56 1.6309 2.7891 1.6309 1.1109 0 2.0091-0.42546 2.5764-1.2291 0.44909-0.66181 0.59091-1.2291 0.59091-2.6236v-8.9345h-1.5836v9.5727c-0.0473 1.0636-0.56727 1.7491-1.4891 1.7491-0.99273 0-1.6073-0.73272-1.6545-1.7727v-9.549h-1.5836zm-3.5739 3.7818v-11.109h2.3636v-1.4891h-6.3109v1.4891h2.3636v11.109zm-2.73 0v-1.4891h-3.1436v-11.109h-1.5836v12.598zm-13.178-3.7818c0 1.2764 0.09454 1.7964 0.35454 2.34 0.52 1.0164 1.56 1.6309 2.7891 1.6309 1.1109 0 2.0091-0.42546 2.5764-1.2291 0.44909-0.66181 0.59091-1.2291 0.59091-2.6236v-8.9345h-1.5836v9.5727c-0.04727 1.0636-0.56727 1.7491-1.4891 1.7491-0.99272 0-1.6073-0.73272-1.6545-1.7727v-9.549h-1.5836zm-1.492-10.471v-1.6073c-0.56727 0.14182-1.0873 0.30727-1.56 0.49636-2.8836 1.2291-4.94 4.1127-4.94 7.4927 0 3.3327 2.0327 6.2163 4.94 7.469 0.47272 0.21273 0.99272 0.37818 1.56 0.49636v-1.6309c-0.63818-0.18909-1.0636-0.42545-1.56-0.63818-1.9854-1.1109-3.3563-3.2618-3.3563-5.6963 0-2.4345 1.3473-4.5618 3.3563-5.6963 0.49636-0.30727 1.0636-0.47273 1.56-0.68545zm-20.152 1.4418c-3.5927 0-6.5 2.9073-6.5 6.5s2.9073 6.5 6.5 6.5c3.5927 0 6.5-2.9073 6.5-6.5s-2.9073-6.5-6.5-6.5zm0 1.5836c2.7182 0 4.9163 2.1982 4.9163 4.9163s-2.1982 4.9163-4.9163 4.9163c-2.7182 0-4.9163-2.1982-4.9163-4.9163s2.1982-4.9163 4.9163-4.9163zm-12.501 7.989 2.7418 3.2382h2.08l-3.0727-3.4982c1.7491-0.70909 2.9545-2.4109 2.9545-4.3727 0-2.0091-1.2291-4.7272-5.4127-4.7272h-0.87454v12.598h1.5836zm0-7.8945c1.7491 0.0709 3.12 1.5127 3.12 3.2618 0 1.7491-1.3945 3.1909-3.12 3.2382zm-5.252 11.133v-11.109h2.3636v-1.4891h-6.3109v1.4891h2.3636v11.109zm-5.2325 0v-12.598h-1.5836v3.3327l-3.12-3.3327h-1.5836v12.598h1.5836v-10.447l3.12 3.3564v7.0909zm-8.5061 0v-1.4891h-3.1436v-1.6545h3.9236v-1.4891h-3.9236v-6.4763h3.1436v-1.4891h-4.7273v7.9654h-0.78v1.4891h0.78v3.1436zm-6.3847-14.253v-1.6073c-0.56727 0.14182-1.0873 0.30727-1.56 0.49636-2.8836 1.2291-4.94 4.1127-4.94 7.4927 0 3.3327 2.0327 6.2163 4.94 7.469 0.47272 0.21273 0.99272 0.37818 1.56 0.49636v-1.6309c-0.63818-0.18909-1.0636-0.42545-1.56-0.63818-1.9854-1.1109-3.3563-3.2618-3.3563-5.6963 0-2.4345 1.3473-4.5618 3.3563-5.6963 0.49636-0.30727 1.0636-0.47273 1.56-0.68545z"
           stroke-width=".59374"
           id="path17" />
      </g>
      <g
         filter="url(#filter883)"
         aria-label="Barra Velha"
         id="g23">
        <path
           d="m110.94 269.41v-3.1436h0.78v-1.4891h-0.78v-4.3018c0-1.3945-0.14182-1.9618-0.59091-2.6236-0.5909-0.80363-1.4891-1.2527-2.5764-1.2527-1.2291 0-2.2927 0.63818-2.7891 1.6545-0.28363 0.54364-0.35454 1.0636-0.35454 2.34v4.1836h-0.78v1.4891h0.78v3.1436h1.5836v-3.1436h3.1436v3.1436zm-1.5836-4.6327h-3.1436v-4.94c0-1.0636 0.66181-1.7727 1.6309-1.7727 0.92181 0 1.5127 0.68546 1.5127 1.7491zm-7.0975 4.6327v-3.1436h0.80364v-1.4891h-0.80364v-7.9654h-1.5836v7.9654h-3.0491v-7.9654h-1.5836v7.9654h-0.78v1.4891h0.78v3.1436h1.5836v-3.1436h3.0491v3.1436zm-7.6537 0v-1.4891h-3.1436v-11.109h-1.5836v12.598zm-6.9461 0v-1.4891h-3.1436v-1.6545h3.9236v-1.4891h-3.9236v-6.4763h3.1436v-1.4891h-4.7272v7.9654h-0.78v1.4891h0.78v3.1436zm-10.112 0h1.6782l2.7182-15.765h-1.5127l-1.9854 12.267-1.9854-12.267h-1.6073zm-9.7245 0v-3.1436h0.78v-1.4891h-0.78v-4.3018c0-1.3945-0.14182-1.9618-0.59091-2.6236-0.59091-0.80363-1.4891-1.2527-2.5764-1.2527-1.2291 0-2.2927 0.63818-2.7891 1.6545-0.28364 0.54364-0.35454 1.0636-0.35454 2.34v4.1836h-0.78v1.4891h0.78v3.1436h1.5836v-3.1436h3.1436v3.1436zm-1.5836-4.6327h-3.1436v-4.94c0-1.0636 0.66182-1.7727 1.6309-1.7727 0.92181 0 1.5127 0.68546 1.5127 1.7491zm-11.201 1.3945 2.7418 3.2382h2.08l-3.0727-3.4982c1.7491-0.70909 2.9545-2.4109 2.9545-4.3727 0-2.0091-1.2291-4.7272-5.4127-4.7272h-0.87454v12.598h1.5836zm0-7.8945c1.7491 0.0709 3.12 1.5127 3.12 3.2618 0 1.7491-1.3945 3.1909-3.12 3.2382zm-7.9865 7.8945 2.7418 3.2382h2.08l-3.0727-3.4982c1.7491-0.70909 2.9545-2.4109 2.9545-4.3727 0-2.0091-1.2291-4.7272-5.4127-4.7272h-0.87454v12.598h1.5836zm0-7.8945c1.7491 0.0709 3.12 1.5127 3.12 3.2618 0 1.7491-1.3945 3.1909-3.12 3.2382zm-3.8808 11.133v-3.1436h0.78v-1.4891h-0.78v-4.3018c0-1.3945-0.14182-1.9618-0.59091-2.6236-0.59091-0.80363-1.4891-1.2527-2.5764-1.2527-1.2291 0-2.2927 0.63818-2.7891 1.6545-0.28364 0.54364-0.35454 1.0636-0.35454 2.34v4.1836h-0.78v1.4891h0.78v3.1436h1.5836v-3.1436h3.1436v3.1436zm-1.5836-4.6327h-3.1436v-4.94c0-1.0636 0.66182-1.7727 1.6309-1.7727 0.92181 0 1.5127 0.68546 1.5127 1.7491zm-11.499-9.6436c0.92181 0 1.6782 0.75636 1.6782 1.6782 0 0.92182-0.75636 1.6545-1.6782 1.6545zm-0.30727-1.4891h-1.2764v15.86c0.52 0 1.04-0.0709 1.5836-0.21273 2.7654-0.70908 4.8218-3.2618 4.8218-6.2872 0-1.8673-0.80363-3.5454-2.0564-4.7272 0.23636-0.42545 0.37818-0.94545 0.37818-1.4654 0-1.7491-1.3236-3.1672-3.4509-3.1672zm1.9618 5.7672c1.04 1.0636 1.5836 2.3164 1.5836 3.64 0 2.1509-1.3709 3.9709-3.2382 4.6327v-7.7291c0.56727-0.0473 1.0636-0.21272 1.6545-0.54363z"
           stroke-width=".59374"
           id="path21" />
      </g>
    </g>
    <g
       fill="#fafafa"
       id="g37">
      <path
         d="m88.5 187.24c5.3e-4 -0.0229 0.30053-0.63187 0.66649-1.3532 1.1539-2.2744 0.83224-4.6338-0.90085-6.6076-0.45823-0.52189-0.83314-1.0158-0.83314-1.0975 0-0.40865 2.4733 0.7701 3.2995 1.5725 1.2652 1.2287 1.6952 2.6713 1.2455 4.1783-0.35921 1.2038-1.9485 2.949-2.9158 3.202-0.30953 0.0809-0.56229 0.12841-0.56167 0.10548zm21.309 4.0195c-1.9647-3.1134-4.679-7.3899-6.0319-9.5032s-2.4112-3.9211-2.3517-4.0172c0.0594-0.0961 1.3441-0.20347 2.8548-0.23854l2.7468-0.0638-0.92053 0.77546c-0.90371 0.7613-0.91465 0.79507-0.59898 1.8487 0.34102 1.1382 2.3272 4.5099 5.8125 9.8673l2.1229 3.2632 3.2503-5.6625c1.7876-3.1144 3.3857-6.0546 3.5513-6.5337 0.41023-1.187 0.11474-2.1424-0.82865-2.6791-0.43369-0.24676-0.78929-0.53079-0.79022-0.63119-8e-4 -0.10039 1.7978-0.17643 3.9972-0.16896 3.7454 0.0127 4.7759 0.20226 3.4269 0.63041-0.98496 0.31262-2.8156 2.2162-4.0454 4.2066-0.65002 1.052-2.7154 4.5521-4.5896 7.7779-1.8743 3.2258-3.5486 6.0731-3.7207 6.3273-0.2696 0.39822-0.8073-0.32129-3.885-5.1986zm-63.719 5.7143c-5.3875-3.4166-5.6939-12.056-0.55381-15.614 0.61399-0.425 1.1658-0.72331 1.2262-0.66289 0.06042 0.0604-0.29531 0.75242-0.79051 1.5378-1.5999 2.5374-2.1256 6.4438-1.3245 9.8417 0.47342 2.0081 0.95532 3.0071 2.1799 4.5189 1.0743 1.3264 0.89947 1.416-0.73723 0.37806zm-27.991 0.21524c-1.3613-0.70086-2.8222-2.2952-3.6582-3.9924-0.57932-1.1761-0.7406-1.9252-0.81492-3.7852-0.14404-3.6047 0.95592-6.1257 3.4661-7.944 1.399-1.0134 1.7498-1.0183 1.0349-0.0144-1.3495 1.8951-1.9576 3.7616-2.0845 6.3975-0.18847 3.9139 0.66466 6.8898 2.5444 8.8757 0.88033 0.92998 0.71827 1.0837-0.48782 0.46278zm71.733 1.7371c0-0.0746 0.35322-0.62321 0.78493-1.2192 1.6489-2.2762 1.5999-5.4226-0.12441-7.9849-0.97946-1.4555-0.87696-1.5814 0.65227-0.80122 3.4815 1.7761 4.2548 5.6448 1.6723 8.3658-0.88313 0.93048-2.9851 2.0849-2.9851 1.6395zm-6.1893-12.125c0.87184-0.39571 1.2647-0.78853 1.6604-1.6604 0.64943-1.4309 0.65193-2.1808 0.01194-3.5904-0.76422-1.6832-3.251-2.725-5.2123-2.1835-1.0803 0.29829-1.2011 0.79432-1.2011 4.9317v3.0325l1.7995-6e-3c1.2024-4e-3 2.1785-0.17785 2.9416-0.52419zm2.3713 10.51c1.6968-1.2415 2.3185-4.1576 1.2671-5.9432-0.94409-1.6035-2.0012-2.0223-5.3803-2.1314l-2.9992-0.0969v2.8433c0 3.2905 0.36635 5.0604 1.1668 5.637 0.88126 0.63486 4.9442 0.42384 5.9455-0.3088zm-8.3816 2.3422-0.86938-0.0931 0.13918-21.96 2.9325-0.0794c3.3995-0.092 4.7437 0.20443 6.1378 1.3536 2.6412 2.1771 2.6758 6.5353 0.06649 8.3786l-0.83312 0.58856 0.78016 0.28337c2.7383 0.99462 4.1096 2.8647 4.1096 5.6043 0 2.6495-1.7226 4.9582-4.2626 5.7131-1.3721 0.40776-5.397 0.51129-8.2008 0.21093zm-8.0616-0.0135c0-0.13603 0.37083-0.40093 0.82406-0.58867 0.45323-0.18773 1.143-0.82304 1.5329-1.4118l0.70886-1.0705 0.07698-7.6181c0.07565-7.4868 0.06646-7.6388-0.53319-8.8178-0.39848-0.78347-0.95676-1.3847-1.6092-1.7329-0.54946-0.29326-0.99934-0.62317-0.99973-0.73314-3.95e-4 -0.10997 1.199-0.19994 2.6652-0.19994h2.666v22.328l-2.666 0.0459c-1.4941 0.0258-2.666-0.0628-2.666-0.20139zm38.098-5.0441c-1.944-3.0425-4.6507-7.2818-6.0148-9.4205-2.6622-4.174-4.6638-6.4376-6.1163-6.917-1.585-0.52309-1.0225-0.8158 1.4122-0.73494l2.3193 0.077 2.8834 4.5321c1.5859 2.4927 3.9455 6.2117 5.2437 8.2645s2.985 4.7105 3.7484 5.906c1.3797 2.1605 1.3855 2.1787 0.96126 2.9992-0.23479 0.45402-0.53389 0.82549-0.66467 0.82549-0.13079 0-1.8284-2.4893-3.7724-5.5318zm-52.705 5.1425c-5.2628-1.1969-8.2124-4.2868-8.8435-9.2642-0.41748-3.2928 0.23477-6.3738 1.7771-8.3943 1.6238-2.1273 3.3018-3.2744 6.0079-4.107 3.192-0.98218 8.7394-0.92954 12.868 0.12211l1.3309 0.33898 0.07773 2.7824c0.11529 4.1264-0.2429 5.0338-1.072 2.7157-0.64036-1.7905-1.8385-3.1121-3.61-3.982-1.4273-0.7009-1.7459-0.75007-4.8599-0.75007-3.0922 0-3.4478 0.0539-4.932 0.74707-3.0226 1.4117-4.6878 3.6777-5.1448 7.001-0.61851 4.4977 1.0491 8.3646 4.3309 10.043 4.2182 2.1568 10.662 1.5236 14.328-1.4078 1.1276-0.90162 1.4146-0.70019 1.0541 0.73981-0.13848 0.55323-0.32357 1.3257-0.4113 1.7167-0.14562 0.64895-0.37416 0.76197-2.626 1.2988-3.1445 0.74957-7.9215 0.93568-10.275 0.40032zm-28.655-0.0132c-4.8254-1.2156-7.7096-4.1194-8.4788-8.5368-0.72026-4.1361 0.51276-8.4831 3.0277-10.674 3.2967-2.8721 8.5247-3.899 14.855-2.9182 4.385 0.67944 4.1276 0.49637 4.1603 2.9582 0.01544 1.1613-0.03001 2.6813-0.10099 3.3778-0.13046 1.2801-0.48697 1.6563-0.75783 0.79979-0.7523-2.379-2.5928-4.4823-4.516-5.1608-0.67568-0.2384-2.195-0.37041-4.2507-0.36933-2.9645 2e-3 -3.3222 0.0584-4.8764 0.7745-2.1256 0.97938-4.0838 3.0482-4.7511 5.0192-0.67601 1.9969-0.63515 5.7496 0.08242 7.5702 1.2299 3.1205 3.7188 4.9359 7.5281 5.4911 3.8384 0.55945 7.617-0.30285 10.494-2.3948 0.70337-0.51145 1.3342-0.87459 1.4018-0.80698 0.06761 0.0676-0.06827 0.96957-0.30195 2.0044l-0.42488 1.8814-2.3099 0.60087c-2.956 0.76896-8.4718 0.96517-10.781 0.38351z"
         id="path27" />
      <g
         aria-label="Centro Cultural"
         id="g31">
        <path
           d="m127.79 234.72v-1.4891h-3.1436v-11.109h-1.5836v12.598zm-7.0244 0v-3.1436h0.77999v-1.4891h-0.77999v-4.3018c0-1.3945-0.14182-1.9618-0.59091-2.6236-0.59091-0.80363-1.4891-1.2527-2.5764-1.2527-1.2291 0-2.2927 0.63818-2.7891 1.6545-0.28363 0.54363-0.35454 1.0636-0.35454 2.34v4.1836h-0.78v1.4891h0.78v3.1436h1.5836v-3.1436h3.1436v3.1436zm-1.5836-4.6327h-3.1436v-4.94c0-1.0636 0.66181-1.7727 1.6309-1.7727 0.92181 0 1.5127 0.68545 1.5127 1.7491zm-11.201 1.3945 2.7418 3.2382h2.08l-3.0727-3.4982c1.7491-0.70909 2.9545-2.4109 2.9545-4.3727 0-2.0091-1.2291-4.7272-5.4127-4.7272h-0.87454v12.598h1.5836zm0-7.8945c1.7491 0.0709 3.12 1.5127 3.12 3.2618 0 1.7491-1.3945 3.1909-3.12 3.2382zm-10.034 7.3509c0 1.2764 0.09454 1.7964 0.35454 2.34 0.52 1.0164 1.56 1.6309 2.7891 1.6309 1.1109 0 2.0091-0.42546 2.5764-1.2291 0.44909-0.66181 0.59091-1.2291 0.59091-2.6236v-8.9345h-1.5836v9.5727c-0.0473 1.0636-0.56727 1.7491-1.4891 1.7491-0.99273 0-1.6073-0.73272-1.6545-1.7727v-9.549h-1.5836zm-3.5739 3.7818v-11.109h2.3636v-1.4891h-6.3109v1.4891h2.3636v11.109zm-2.73 0v-1.4891h-3.1436v-11.109h-1.5836v12.598zm-13.178-3.7818c0 1.2764 0.09454 1.7964 0.35454 2.34 0.52 1.0164 1.56 1.6309 2.7891 1.6309 1.1109 0 2.0091-0.42546 2.5764-1.2291 0.44909-0.66181 0.59091-1.2291 0.59091-2.6236v-8.9345h-1.5836v9.5727c-0.04727 1.0636-0.56727 1.7491-1.4891 1.7491-0.99272 0-1.6073-0.73272-1.6545-1.7727v-9.549h-1.5836zm-1.492-10.471v-1.6073c-0.56727 0.14182-1.0873 0.30727-1.56 0.49636-2.8836 1.2291-4.94 4.1127-4.94 7.4927 0 3.3327 2.0327 6.2163 4.94 7.469 0.47272 0.21273 0.99272 0.37818 1.56 0.49636v-1.6309c-0.63818-0.18909-1.0636-0.42545-1.56-0.63818-1.9854-1.1109-3.3563-3.2618-3.3563-5.6963 0-2.4345 1.3473-4.5618 3.3563-5.6963 0.49636-0.30727 1.0636-0.47273 1.56-0.68545zm-20.152 1.4418c-3.5927 0-6.5 2.9073-6.5 6.5s2.9073 6.5 6.5 6.5c3.5927 0 6.5-2.9073 6.5-6.5s-2.9073-6.5-6.5-6.5zm0 1.5836c2.7182 0 4.9163 2.1982 4.9163 4.9163s-2.1982 4.9163-4.9163 4.9163c-2.7182 0-4.9163-2.1982-4.9163-4.9163s2.1982-4.9163 4.9163-4.9163zm-12.501 7.989 2.7418 3.2382h2.08l-3.0727-3.4982c1.7491-0.70909 2.9545-2.4109 2.9545-4.3727 0-2.0091-1.2291-4.7272-5.4127-4.7272h-0.87454v12.598h1.5836zm0-7.8945c1.7491 0.0709 3.12 1.5127 3.12 3.2618 0 1.7491-1.3945 3.1909-3.12 3.2382zm-5.252 11.133v-11.109h2.3636v-1.4891h-6.3109v1.4891h2.3636v11.109zm-5.2325 0v-12.598h-1.5836v3.3327l-3.12-3.3327h-1.5836v12.598h1.5836v-10.447l3.12 3.3564v7.0909zm-8.5061 0v-1.4891h-3.1436v-1.6545h3.9236v-1.4891h-3.9236v-6.4763h3.1436v-1.4891h-4.7273v7.9654h-0.78v1.4891h0.78v3.1436zm-6.3847-14.253v-1.6073c-0.56727 0.14182-1.0873 0.30727-1.56 0.49636-2.8836 1.2291-4.94 4.1127-4.94 7.4927 0 3.3327 2.0327 6.2163 4.94 7.469 0.47272 0.21273 0.99272 0.37818 1.56 0.49636v-1.6309c-0.63818-0.18909-1.0636-0.42545-1.56-0.63818-1.9854-1.1109-3.3563-3.2618-3.3563-5.6963 0-2.4345 1.3473-4.5618 3.3563-5.6963 0.49636-0.30727 1.0636-0.47273 1.56-0.68545z"
           fill="#fafafa"
           stroke-width=".59374"
           id="path29" />
      </g>
      <g
         aria-label="Barra Velha"
         id="g35">
        <path
           d="m110.94 269.41v-3.1436h0.78v-1.4891h-0.78v-4.3018c0-1.3945-0.14182-1.9618-0.59091-2.6236-0.5909-0.80363-1.4891-1.2527-2.5764-1.2527-1.2291 0-2.2927 0.63818-2.7891 1.6545-0.28363 0.54364-0.35454 1.0636-0.35454 2.34v4.1836h-0.78v1.4891h0.78v3.1436h1.5836v-3.1436h3.1436v3.1436zm-1.5836-4.6327h-3.1436v-4.94c0-1.0636 0.66181-1.7727 1.6309-1.7727 0.92181 0 1.5127 0.68546 1.5127 1.7491zm-7.0975 4.6327v-3.1436h0.80364v-1.4891h-0.80364v-7.9654h-1.5836v7.9654h-3.0491v-7.9654h-1.5836v7.9654h-0.78v1.4891h0.78v3.1436h1.5836v-3.1436h3.0491v3.1436zm-7.6537 0v-1.4891h-3.1436v-11.109h-1.5836v12.598zm-6.9461 0v-1.4891h-3.1436v-1.6545h3.9236v-1.4891h-3.9236v-6.4763h3.1436v-1.4891h-4.7272v7.9654h-0.78v1.4891h0.78v3.1436zm-10.112 0h1.6782l2.7182-15.765h-1.5127l-1.9854 12.267-1.9854-12.267h-1.6073zm-9.7245 0v-3.1436h0.78v-1.4891h-0.78v-4.3018c0-1.3945-0.14182-1.9618-0.59091-2.6236-0.59091-0.80363-1.4891-1.2527-2.5764-1.2527-1.2291 0-2.2927 0.63818-2.7891 1.6545-0.28364 0.54364-0.35454 1.0636-0.35454 2.34v4.1836h-0.78v1.4891h0.78v3.1436h1.5836v-3.1436h3.1436v3.1436zm-1.5836-4.6327h-3.1436v-4.94c0-1.0636 0.66182-1.7727 1.6309-1.7727 0.92181 0 1.5127 0.68546 1.5127 1.7491zm-11.201 1.3945 2.7418 3.2382h2.08l-3.0727-3.4982c1.7491-0.70909 2.9545-2.4109 2.9545-4.3727 0-2.0091-1.2291-4.7272-5.4127-4.7272h-0.87454v12.598h1.5836zm0-7.8945c1.7491 0.0709 3.12 1.5127 3.12 3.2618 0 1.7491-1.3945 3.1909-3.12 3.2382zm-7.9865 7.8945 2.7418 3.2382h2.08l-3.0727-3.4982c1.7491-0.70909 2.9545-2.4109 2.9545-4.3727 0-2.0091-1.2291-4.7272-5.4127-4.7272h-0.87454v12.598h1.5836zm0-7.8945c1.7491 0.0709 3.12 1.5127 3.12 3.2618 0 1.7491-1.3945 3.1909-3.12 3.2382zm-3.8808 11.133v-3.1436h0.78v-1.4891h-0.78v-4.3018c0-1.3945-0.14182-1.9618-0.59091-2.6236-0.59091-0.80363-1.4891-1.2527-2.5764-1.2527-1.2291 0-2.2927 0.63818-2.7891 1.6545-0.28364 0.54364-0.35454 1.0636-0.35454 2.34v4.1836h-0.78v1.4891h0.78v3.1436h1.5836v-3.1436h3.1436v3.1436zm-1.5836-4.6327h-3.1436v-4.94c0-1.0636 0.66182-1.7727 1.6309-1.7727 0.92181 0 1.5127 0.68546 1.5127 1.7491zm-11.499-9.6436c0.92181 0 1.6782 0.75636 1.6782 1.6782 0 0.92182-0.75636 1.6545-1.6782 1.6545zm-0.30727-1.4891h-1.2764v15.86c0.52 0 1.04-0.0709 1.5836-0.21273 2.7654-0.70908 4.8218-3.2618 4.8218-6.2872 0-1.8673-0.80363-3.5454-2.0564-4.7272 0.23636-0.42545 0.37818-0.94545 0.37818-1.4654 0-1.7491-1.3236-3.1672-3.4509-3.1672zm1.9618 5.7672c1.04 1.0636 1.5836 2.3164 1.5836 3.64 0 2.1509-1.3709 3.9709-3.2382 4.6327v-7.7291c0.56727-0.0473 1.0636-0.21272 1.6545-0.54363z"
           fill="#fafafa"
           stroke-width=".59374"
           id="path33" />
      </g>
    </g>
  </g>
</svg>
